# xmcd
#
# Track frame offsets: 
#        150
#        15080
#        29930
#        50100
#        66247
#        83450
#        94132
#        114045
#        126835
#        141665
#
# Disc length: 2200 seconds
#
# Revision: 2
# Processed by: cddbd v1.5.2PL0 Copyright (c) Steve Scherf et al.
# Submitted via: ExactAudioCopy v1.0b3
#
DISCID=8508960a
DTITLE=Big Twist and The Mellow Fellows - Big Twist and The Mellow Fellows
DYEAR=1980
DGENRE=Blues
TTITLE0=(It Would Be) You and Me
TTITLE1=Who's Cheating Who
TTITLE2=Till The Morning Comes
TTITLE3=Slave for Love
TTITLE4=(That's the Sound of A) Happy Man
TTITLE5=Turn Back the Hands of Time
TTITLE6=Nobody Wants to Loose
TTITLE7=The Sweet Sound of Rythm and Blues
TTITLE8=Here In This City
TTITLE9=Children's Blues
EXTD=
EXTT0=
EXTT1=
EXTT2=
EXTT3=
EXTT4=
EXTT5=
EXTT6=
EXTT7=
EXTT8=
EXTT9=
PLAYORDER=
